<?xml version="1.0" encoding="UTF-8"?>
<svg width="67px" height="58px" viewBox="0 0 67 58" version="1.1" xmlns="http://www.w3.org/2000/svg" xmlns:xlink="http://www.w3.org/1999/xlink">
    <title>design_lesson_CB_logo_04</title>
    <g id="design_lesson_CB_logo_04" stroke="none" stroke-width="1" fill="none" fill-rule="evenodd">
        <g id="forMohamed_2-Copy-3" fill-rule="nonzero">
            <path d="M4.69046082,22.4139936 C4.69046082,13.1323944 11.9002194,5.57201272 20.9180328,5.22471604 C23.3624629,3.48441617 26.0801601,2.12576102 29,1.22889596 C26.7577127,0.435074966 24.3507164,0 21.8389054,0 C9.77772041,0 0,9.96855975 0,22.2689687 C0,30.8407088 4.75409836,38.2751477 11.7167936,42 C10.5114238,39.5383916 9.63921518,36.878328 9.16006196,34.0808723 C6.38621402,31.0124489 4.69046082,26.9174012 4.69046082,22.4139936 Z" id="Path" fill="#9C9C9C" opacity="0.6"></path>
            <path d="M37.9763539,0 C35.0663616,0 32.259344,0.434399842 29.6125095,1.22698903 C38.3196034,4.24492477 44.5705568,12.5061428 44.5705568,22.234413 C44.5705568,34.5157348 34.6086957,44.468826 22.3165523,44.468826 C18.590389,44.468826 15.085431,43.5504895 12,41.9348269 C16.7597254,51.4573287 26.5995423,58 37.9763539,58 C54.0061022,58 67,45.0175416 67,29.0019053 C67,12.986269 54.0061022,0 37.9763539,0 Z" id="Path" fill="#888888"></path>
        </g>
        <text id="CB" font-family="HelveticaNeue-Medium, Helvetica Neue" font-size="24" font-weight="400" letter-spacing="-0.685714" fill="#3D9DD5">
            <tspan x="7" y="32">CB</tspan>
        </text>
    </g>
</svg>