<?xml version="1.0" encoding="UTF-8"?>
<svg width="211px" height="183px" viewBox="0 0 211 183" version="1.1" xmlns="http://www.w3.org/2000/svg" xmlns:xlink="http://www.w3.org/1999/xlink">
    <title>design_lesson_CB_logo_01</title>
    <g id="design_lesson_CB_logo_01" stroke="none" stroke-width="1" fill="none" fill-rule="evenodd">
        <g id="forMohamed_2-Copy-2" fill-rule="nonzero">
            <path d="M15.0418226,70.44398 C15.0418226,41.2732394 38.1627727,17.51204 67.0819672,16.4205361 C74.9210017,10.9510223 83.6363754,6.6809632 93,3.86224443 C85.8092165,1.36737846 78.0902285,0 70.0351104,0 C31.3561379,0 0,31.3297592 0,69.9881872 C0,96.9279418 15.2459016,120.293321 37.574545,132 C33.7090487,124.263517 30.9119659,115.903317 29.3753711,107.111313 C20.4799277,97.4676965 15.0418226,84.5975466 15.0418226,70.44398 Z" id="Path" fill="#9C9C9C" opacity="0.6"></path>
            <path d="M119.707441,0 C110.554192,0 101.724846,1.3706064 93.3993482,3.87136193 C120.787116,13.3934695 140.449206,39.4590369 140.449206,70.1534065 C140.449206,108.903094 109.114625,140.306813 70.4502462,140.306813 C58.7297691,140.306813 47.7050829,137.409303 38,132.311609 C52.9714999,162.356744 83.9221968,183 119.707441,183 C170.128285,183 211,142.038105 211,91.5060114 C211,40.9739176 170.128285,0 119.707441,0 Z" id="Path" fill="#888888"></path>
        </g>
        <g id="Check-Balance" transform="translate(42.532000, 48.456000)" fill="#3D9DD5" fill-rule="nonzero">
            <path d="M12.888,5.568 L15.168,5.568 C15.04,4.656 14.768,3.852 14.352,3.156 C13.936,2.46 13.416,1.88 12.792,1.416 C12.168,0.952 11.456,0.6 10.656,0.36 C9.856,0.12 9.008,0 8.112,0 C6.8,0 5.636,0.236 4.62,0.708 C3.604,1.18 2.756,1.824 2.076,2.64 C1.396,3.456 0.88,4.412 0.528,5.508 C0.176,6.604 0,7.776 0,9.024 C0,10.272 0.164,11.44 0.492,12.528 C0.82,13.616 1.312,14.56 1.968,15.36 C2.624,16.16 3.448,16.788 4.44,17.244 C5.432,17.7 6.592,17.928 7.92,17.928 C10.112,17.928 11.84,17.328 13.104,16.128 C14.368,14.928 15.112,13.248 15.336,11.088 L13.056,11.088 C13.008,11.792 12.864,12.448 12.624,13.056 C12.384,13.664 12.052,14.188 11.628,14.628 C11.204,15.068 10.7,15.412 10.116,15.66 C9.532,15.908 8.864,16.032 8.112,16.032 C7.088,16.032 6.208,15.84 5.472,15.456 C4.736,15.072 4.132,14.556 3.66,13.908 C3.188,13.26 2.84,12.5 2.616,11.628 C2.392,10.756 2.28,9.832 2.28,8.856 C2.28,7.96 2.392,7.096 2.616,6.264 C2.84,5.432 3.188,4.692 3.66,4.044 C4.132,3.396 4.732,2.88 5.46,2.496 C6.188,2.112 7.064,1.92 8.088,1.92 C9.288,1.92 10.324,2.224 11.196,2.832 C12.068,3.44 12.632,4.352 12.888,5.568 Z" id="Path"></path>
            <path d="M17.146286,0.408 L17.146286,17.544 L19.186286,17.544 L19.186286,10.536 C19.186286,9.976 19.262286,9.46 19.414286,8.988 C19.566286,8.516 19.794286,8.104 20.098286,7.752 C20.402286,7.4 20.782286,7.128 21.238286,6.936 C21.694286,6.744 22.234286,6.648 22.858286,6.648 C23.642286,6.648 24.258286,6.872 24.706286,7.32 C25.154286,7.768 25.378286,8.376 25.378286,9.144 L25.378286,17.544 L27.418286,17.544 L27.418286,9.384 C27.418286,8.712 27.350286,8.1 27.214286,7.548 C27.078286,6.996 26.842286,6.52 26.506286,6.12 C26.170286,5.72 25.730286,5.408 25.186286,5.184 C24.642286,4.96 23.962286,4.848 23.146286,4.848 C22.778286,4.848 22.398286,4.888 22.006286,4.968 C21.614286,5.048 21.238286,5.172 20.878286,5.34 C20.518286,5.508 20.194286,5.724 19.906286,5.988 C19.618286,6.252 19.394286,6.576 19.234286,6.96 L19.186286,6.96 L19.186286,0.408 L17.146286,0.408 Z" id="Path"></path>
            <path d="M38.420572,10.152 L31.292572,10.152 C31.324572,9.672 31.428572,9.22 31.604572,8.796 C31.780572,8.372 32.020572,8 32.324572,7.68 C32.628572,7.36 32.992572,7.108 33.416572,6.924 C33.840572,6.74 34.316572,6.648 34.844572,6.648 C35.356572,6.648 35.824572,6.74 36.248572,6.924 C36.672572,7.108 37.040572,7.356 37.352572,7.668 C37.664572,7.98 37.912572,8.352 38.096572,8.784 C38.280572,9.216 38.388572,9.672 38.420572,10.152 Z M40.388572,13.608 L38.372572,13.608 C38.196572,14.424 37.832572,15.032 37.280572,15.432 C36.728572,15.832 36.020572,16.032 35.156572,16.032 C34.484572,16.032 33.900572,15.92 33.404572,15.696 C32.908572,15.472 32.500572,15.172 32.180572,14.796 C31.860572,14.42 31.628572,13.988 31.484572,13.5 C31.340572,13.012 31.276572,12.496 31.292572,11.952 L40.580572,11.952 C40.612572,11.2 40.544572,10.408 40.376572,9.576 C40.208572,8.744 39.904572,7.976 39.464572,7.272 C39.024572,6.568 38.440572,5.988 37.712572,5.532 C36.984572,5.076 36.068572,4.848 34.964572,4.848 C34.116572,4.848 33.336572,5.008 32.624572,5.328 C31.912572,5.648 31.296572,6.096 30.776572,6.672 C30.256572,7.248 29.852572,7.928 29.564572,8.712 C29.276572,9.496 29.132572,10.36 29.132572,11.304 C29.164572,12.248 29.304572,13.12 29.552572,13.92 C29.800572,14.72 30.172572,15.408 30.668572,15.984 C31.164572,16.56 31.776572,17.008 32.504572,17.328 C33.232572,17.648 34.092572,17.808 35.084572,17.808 C36.492572,17.808 37.660572,17.456 38.588572,16.752 C39.516572,16.048 40.116572,15 40.388572,13.608 Z" id="Shape"></path>
            <path d="M50.430858,9.12 L52.542858,9.12 C52.462858,8.384 52.270858,7.748 51.966858,7.212 C51.662858,6.676 51.274858,6.232 50.802858,5.88 C50.330858,5.528 49.786858,5.268 49.170858,5.1 C48.554858,4.932 47.894858,4.848 47.190858,4.848 C46.214858,4.848 45.358858,5.02 44.622858,5.364 C43.886858,5.708 43.274858,6.18 42.786858,6.78 C42.298858,7.38 41.934858,8.084 41.694858,8.892 C41.454858,9.7 41.334858,10.568 41.334858,11.496 C41.334858,12.424 41.458858,13.276 41.706858,14.052 C41.954858,14.828 42.322858,15.496 42.810858,16.056 C43.298858,16.616 43.906858,17.048 44.634858,17.352 C45.362858,17.656 46.198858,17.808 47.142858,17.808 C48.726858,17.808 49.978858,17.392 50.898858,16.56 C51.818858,15.728 52.390858,14.544 52.614858,13.008 L50.526858,13.008 C50.398858,13.968 50.050858,14.712 49.482858,15.24 C48.914858,15.768 48.126858,16.032 47.118858,16.032 C46.478858,16.032 45.926858,15.904 45.462858,15.648 C44.998858,15.392 44.622858,15.052 44.334858,14.628 C44.046858,14.204 43.834858,13.72 43.698858,13.176 C43.562858,12.632 43.494858,12.072 43.494858,11.496 C43.494858,10.872 43.558858,10.268 43.686858,9.684 C43.814858,9.1 44.026858,8.584 44.322858,8.136 C44.618858,7.688 45.014858,7.328 45.510858,7.056 C46.006858,6.784 46.622858,6.648 47.358858,6.648 C48.222858,6.648 48.910858,6.864 49.422858,7.296 C49.934858,7.728 50.270858,8.336 50.430858,9.12 Z" id="Path"></path>
            <polygon id="Path" points="54.329144 0.408 54.329144 17.544 56.369144 17.544 56.369144 12.84 58.289144 11.064 62.537144 17.544 65.129144 17.544 59.849144 9.648 64.769144 5.136 62.033144 5.136 56.369144 10.56 56.369144 0.408"></polygon>
            <path d="M3.12,35.776 L3.12,30.328 L7.68,30.328 C8.176,30.328 8.644,30.356 9.084,30.412 C9.524,30.468 9.912,30.592 10.248,30.784 C10.584,30.976 10.848,31.248 11.04,31.6 C11.232,31.952 11.328,32.432 11.328,33.04 C11.328,33.952 11.044,34.636 10.476,35.092 C9.908,35.548 8.976,35.776 7.68,35.776 L3.12,35.776 Z M0.84,28.408 L0.84,45.544 L9.12,45.544 C9.968,45.544 10.716,45.404 11.364,45.124 C12.012,44.844 12.556,44.476 12.996,44.02 C13.436,43.564 13.768,43.04 13.992,42.448 C14.216,41.856 14.328,41.248 14.328,40.624 C14.328,39.568 14.048,38.672 13.488,37.936 C12.928,37.2 12.12,36.72 11.064,36.496 L11.064,36.448 C11.88,36.128 12.508,35.636 12.948,34.972 C13.388,34.308 13.608,33.52 13.608,32.608 C13.608,31.744 13.412,31.016 13.02,30.424 C12.628,29.832 12.152,29.368 11.592,29.032 C11.336,28.872 11.028,28.752 10.668,28.672 C10.308,28.592 9.92,28.532 9.504,28.492 C9.088,28.452 8.668,28.428 8.244,28.42 C7.82,28.412 7.424,28.408 7.056,28.408 L0.84,28.408 Z M3.12,43.624 L3.12,37.696 L8.328,37.696 C8.808,37.696 9.272,37.74 9.72,37.828 C10.168,37.916 10.564,38.068 10.908,38.284 C11.252,38.5 11.528,38.792 11.736,39.16 C11.944,39.528 12.048,39.992 12.048,40.552 C12.048,41.512 11.764,42.264 11.196,42.808 C10.628,43.352 9.84,43.624 8.832,43.624 L3.12,43.624 Z" id="Shape"></path>
            <path d="M27.250286,45.496 C26.898286,45.704 26.410286,45.808 25.786286,45.808 C25.258286,45.808 24.838286,45.66 24.526286,45.364 C24.214286,45.068 24.058286,44.584 24.058286,43.912 C23.498286,44.584 22.846286,45.068 22.102286,45.364 C21.358286,45.66 20.554286,45.808 19.690286,45.808 C19.130286,45.808 18.598286,45.744 18.094286,45.616 C17.590286,45.488 17.154286,45.288 16.786286,45.016 C16.418286,44.744 16.126286,44.388 15.910286,43.948 C15.694286,43.508 15.586286,42.976 15.586286,42.352 C15.586286,41.648 15.706286,41.072 15.946286,40.624 C16.186286,40.176 16.502286,39.812 16.894286,39.532 C17.286286,39.252 17.734286,39.04 18.238286,38.896 C18.742286,38.752 19.258286,38.632 19.786286,38.536 C20.346286,38.424 20.878286,38.34 21.382286,38.284 C21.886286,38.228 22.330286,38.148 22.714286,38.044 C23.098286,37.94 23.402286,37.788 23.626286,37.588 C23.850286,37.388 23.962286,37.096 23.962286,36.712 C23.962286,36.264 23.878286,35.904 23.710286,35.632 C23.542286,35.36 23.326286,35.152 23.062286,35.008 C22.798286,34.864 22.502286,34.768 22.174286,34.72 C21.846286,34.672 21.522286,34.648 21.202286,34.648 C20.338286,34.648 19.618286,34.812 19.042286,35.14 C18.466286,35.468 18.154286,36.088 18.106286,37 L16.066286,37 C16.098286,36.232 16.258286,35.584 16.546286,35.056 C16.834286,34.528 17.218286,34.1 17.698286,33.772 C18.178286,33.444 18.726286,33.208 19.342286,33.064 C19.958286,32.92 20.618286,32.848 21.322286,32.848 C21.882286,32.848 22.438286,32.888 22.990286,32.968 C23.542286,33.048 24.042286,33.212 24.490286,33.46 C24.938286,33.708 25.298286,34.056 25.570286,34.504 C25.842286,34.952 25.978286,35.536 25.978286,36.256 L25.978286,42.64 C25.978286,43.12 26.006286,43.472 26.062286,43.696 C26.118286,43.92 26.306286,44.032 26.626286,44.032 C26.802286,44.032 27.010286,43.992 27.250286,43.912 L27.250286,45.496 Z M23.938286,39.136 C23.682286,39.328 23.346286,39.468 22.930286,39.556 C22.514286,39.644 22.078286,39.716 21.622286,39.772 C21.166286,39.828 20.706286,39.892 20.242286,39.964 C19.778286,40.036 19.362286,40.152 18.994286,40.312 C18.626286,40.472 18.326286,40.7 18.094286,40.996 C17.862286,41.292 17.746286,41.696 17.746286,42.208 C17.746286,42.544 17.814286,42.828 17.950286,43.06 C18.086286,43.292 18.262286,43.48 18.478286,43.624 C18.694286,43.768 18.946286,43.872 19.234286,43.936 C19.522286,44 19.826286,44.032 20.146286,44.032 C20.818286,44.032 21.394286,43.94 21.874286,43.756 C22.354286,43.572 22.746286,43.34 23.050286,43.06 C23.354286,42.78 23.578286,42.476 23.722286,42.148 C23.866286,41.82 23.938286,41.512 23.938286,41.224 L23.938286,39.136 Z" id="Shape"></path>
            <polygon id="Path" points="28.580572 28.408 28.580572 45.544 30.620572 45.544 30.620572 28.408"></polygon>
            <path d="M44.094858,45.496 C43.742858,45.704 43.254858,45.808 42.630858,45.808 C42.102858,45.808 41.682858,45.66 41.370858,45.364 C41.058858,45.068 40.902858,44.584 40.902858,43.912 C40.342858,44.584 39.690858,45.068 38.946858,45.364 C38.202858,45.66 37.398858,45.808 36.534858,45.808 C35.974858,45.808 35.442858,45.744 34.938858,45.616 C34.434858,45.488 33.998858,45.288 33.630858,45.016 C33.262858,44.744 32.970858,44.388 32.754858,43.948 C32.538858,43.508 32.430858,42.976 32.430858,42.352 C32.430858,41.648 32.550858,41.072 32.790858,40.624 C33.030858,40.176 33.346858,39.812 33.738858,39.532 C34.130858,39.252 34.578858,39.04 35.082858,38.896 C35.586858,38.752 36.102858,38.632 36.630858,38.536 C37.190858,38.424 37.722858,38.34 38.226858,38.284 C38.730858,38.228 39.174858,38.148 39.558858,38.044 C39.942858,37.94 40.246858,37.788 40.470858,37.588 C40.694858,37.388 40.806858,37.096 40.806858,36.712 C40.806858,36.264 40.722858,35.904 40.554858,35.632 C40.386858,35.36 40.170858,35.152 39.906858,35.008 C39.642858,34.864 39.346858,34.768 39.018858,34.72 C38.690858,34.672 38.366858,34.648 38.046858,34.648 C37.182858,34.648 36.462858,34.812 35.886858,35.14 C35.310858,35.468 34.998858,36.088 34.950858,37 L32.910858,37 C32.942858,36.232 33.102858,35.584 33.390858,35.056 C33.678858,34.528 34.062858,34.1 34.542858,33.772 C35.022858,33.444 35.570858,33.208 36.186858,33.064 C36.802858,32.92 37.462858,32.848 38.166858,32.848 C38.726858,32.848 39.282858,32.888 39.834858,32.968 C40.386858,33.048 40.886858,33.212 41.334858,33.46 C41.782858,33.708 42.142858,34.056 42.414858,34.504 C42.686858,34.952 42.822858,35.536 42.822858,36.256 L42.822858,42.64 C42.822858,43.12 42.850858,43.472 42.906858,43.696 C42.962858,43.92 43.150858,44.032 43.470858,44.032 C43.646858,44.032 43.854858,43.992 44.094858,43.912 L44.094858,45.496 Z M40.782858,39.136 C40.526858,39.328 40.190858,39.468 39.774858,39.556 C39.358858,39.644 38.922858,39.716 38.466858,39.772 C38.010858,39.828 37.550858,39.892 37.086858,39.964 C36.622858,40.036 36.206858,40.152 35.838858,40.312 C35.470858,40.472 35.170858,40.7 34.938858,40.996 C34.706858,41.292 34.590858,41.696 34.590858,42.208 C34.590858,42.544 34.658858,42.828 34.794858,43.06 C34.930858,43.292 35.106858,43.48 35.322858,43.624 C35.538858,43.768 35.790858,43.872 36.078858,43.936 C36.366858,44 36.670858,44.032 36.990858,44.032 C37.662858,44.032 38.238858,43.94 38.718858,43.756 C39.198858,43.572 39.590858,43.34 39.894858,43.06 C40.198858,42.78 40.422858,42.476 40.566858,42.148 C40.710858,41.82 40.782858,41.512 40.782858,41.224 L40.782858,39.136 Z" id="Shape"></path>
            <path d="M45.305144,33.136 L45.305144,45.544 L47.345144,45.544 L47.345144,38.536 C47.345144,37.976 47.421144,37.46 47.573144,36.988 C47.725144,36.516 47.953144,36.104 48.257144,35.752 C48.561144,35.4 48.941144,35.128 49.397144,34.936 C49.853144,34.744 50.393144,34.648 51.017144,34.648 C51.801144,34.648 52.417144,34.872 52.865144,35.32 C53.313144,35.768 53.537144,36.376 53.537144,37.144 L53.537144,45.544 L55.577144,45.544 L55.577144,37.384 C55.577144,36.712 55.509144,36.1 55.373144,35.548 C55.237144,34.996 55.001144,34.52 54.665144,34.12 C54.329144,33.72 53.889144,33.408 53.345144,33.184 C52.801144,32.96 52.121144,32.848 51.305144,32.848 C49.465144,32.848 48.121144,33.6 47.273144,35.104 L47.225144,35.104 L47.225144,33.136 L45.305144,33.136 Z" id="Path"></path>
            <path d="M66.38743,37.12 L68.49943,37.12 C68.41943,36.384 68.22743,35.748 67.92343,35.212 C67.61943,34.676 67.23143,34.232 66.75943,33.88 C66.28743,33.528 65.74343,33.268 65.12743,33.1 C64.51143,32.932 63.85143,32.848 63.14743,32.848 C62.17143,32.848 61.31543,33.02 60.57943,33.364 C59.84343,33.708 59.23143,34.18 58.74343,34.78 C58.25543,35.38 57.89143,36.084 57.65143,36.892 C57.41143,37.7 57.29143,38.568 57.29143,39.496 C57.29143,40.424 57.41543,41.276 57.66343,42.052 C57.91143,42.828 58.27943,43.496 58.76743,44.056 C59.25543,44.616 59.86343,45.048 60.59143,45.352 C61.31943,45.656 62.15543,45.808 63.09943,45.808 C64.68343,45.808 65.93543,45.392 66.85543,44.56 C67.77543,43.728 68.34743,42.544 68.57143,41.008 L66.48343,41.008 C66.35543,41.968 66.00743,42.712 65.43943,43.24 C64.87143,43.768 64.08343,44.032 63.07543,44.032 C62.43543,44.032 61.88343,43.904 61.41943,43.648 C60.95543,43.392 60.57943,43.052 60.29143,42.628 C60.00343,42.204 59.79143,41.72 59.65543,41.176 C59.51943,40.632 59.45143,40.072 59.45143,39.496 C59.45143,38.872 59.51543,38.268 59.64343,37.684 C59.77143,37.1 59.98343,36.584 60.27943,36.136 C60.57543,35.688 60.97143,35.328 61.46743,35.056 C61.96343,34.784 62.57943,34.648 63.31543,34.648 C64.17943,34.648 64.86743,34.864 65.37943,35.296 C65.89143,35.728 66.22743,36.336 66.38743,37.12 Z" id="Path"></path>
            <path d="M78.781716,38.152 L71.653716,38.152 C71.685716,37.672 71.789716,37.22 71.965716,36.796 C72.141716,36.372 72.381716,36 72.685716,35.68 C72.989716,35.36 73.353716,35.108 73.777716,34.924 C74.201716,34.74 74.677716,34.648 75.205716,34.648 C75.717716,34.648 76.185716,34.74 76.609716,34.924 C77.033716,35.108 77.401716,35.356 77.713716,35.668 C78.025716,35.98 78.273716,36.352 78.457716,36.784 C78.641716,37.216 78.749716,37.672 78.781716,38.152 Z M80.749716,41.608 L78.733716,41.608 C78.557716,42.424 78.193716,43.032 77.641716,43.432 C77.089716,43.832 76.381716,44.032 75.517716,44.032 C74.845716,44.032 74.261716,43.92 73.765716,43.696 C73.269716,43.472 72.861716,43.172 72.541716,42.796 C72.221716,42.42 71.989716,41.988 71.845716,41.5 C71.701716,41.012 71.637716,40.496 71.653716,39.952 L80.941716,39.952 C80.973716,39.2 80.905716,38.408 80.737716,37.576 C80.569716,36.744 80.265716,35.976 79.825716,35.272 C79.385716,34.568 78.801716,33.988 78.073716,33.532 C77.345716,33.076 76.429716,32.848 75.325716,32.848 C74.477716,32.848 73.697716,33.008 72.985716,33.328 C72.273716,33.648 71.657716,34.096 71.137716,34.672 C70.617716,35.248 70.213716,35.928 69.925716,36.712 C69.637716,37.496 69.493716,38.36 69.493716,39.304 C69.525716,40.248 69.665716,41.12 69.913716,41.92 C70.161716,42.72 70.533716,43.408 71.029716,43.984 C71.525716,44.56 72.137716,45.008 72.865716,45.328 C73.593716,45.648 74.453716,45.808 75.445716,45.808 C76.853716,45.808 78.021716,45.456 78.949716,44.752 C79.877716,44.048 80.477716,43 80.749716,41.608 Z" id="Shape"></path>
        </g>
    </g>
</svg>