<?xml version="1.0" encoding="UTF-8"?>
<svg width="211px" height="183px" viewBox="0 0 211 183" version="1.1" xmlns="http://www.w3.org/2000/svg" xmlns:xlink="http://www.w3.org/1999/xlink">
    <title>design_lesson_CB_logo_02</title>
    <g id="design_lesson_CB_logo_02" stroke="none" stroke-width="1" fill="none" fill-rule="evenodd">
        <path d="M69.4908936,33.4748374 C63.029445,33.7883281 58.3375259,36.2670007 55.4151363,40.9108549 C51.031552,47.8766364 47.0508148,54.1506861 47.0508148,61.4423658 C47.0508148,68.7340454 47.0508148,75.0294061 47.0508148,80.9618809 C47.0508148,84.9168641 47.8021406,87.6068984 49.3047921,89.0319837 L34.526413,96.3432396 L73.4064198,126.098213 L85.4270671,79.7865253 L85.4270671,75.1969982 L69.4908936,80.9618809 L63.9921238,64.5687352 L63.9921238,50.0395401 L69.4908936,33.4748374 Z" id="Path-10" fill="#3D9DD5"></path>
        <path d="M85.4270671,20.0982132 L70.7686891,68.7340454 C72.4219519,70.3365828 74.8650149,70.3365828 78.0978781,68.7340454 C81.3307413,67.1315081 83.7738043,65.7892407 85.4270671,64.7072432 C89.5177412,72.1838177 91.5630783,77.210245 91.5630783,79.7865253 C91.5630783,83.6509457 93.7469147,96.8430164 91.5630783,99.716889 C90.1071874,101.632804 88.0618503,105.292886 85.4270671,110.697135 C87.0642619,112.864112 89.109599,112.864112 91.5630783,110.697135 C95.2432974,107.446669 102.445116,98.5574513 104.843497,95.1305116 C107.241877,91.7035719 108.986453,80.5273673 108.986453,74.6307064 C108.986453,70.6995991 108.986453,65.4173992 108.986453,58.7841066 L122.887601,53.5342861 L85.4270671,20.0982132 Z" id="Path-11" fill="#3D9DD5"></path>
        <g id="forMohamed_2" fill-rule="nonzero">
            <path d="M15.0418226,70.44398 C15.0418226,41.2732394 38.1627727,17.51204 67.0819672,16.4205361 C74.9210017,10.9510223 83.6363754,6.6809632 93,3.86224443 C85.8092165,1.36737846 78.0902285,0 70.0351104,0 C31.3561379,0 0,31.3297592 0,69.9881872 C0,96.9279418 15.2459016,120.293321 37.574545,132 C33.7090487,124.263517 30.9119659,115.903317 29.3753711,107.111313 C20.4799277,97.4676965 15.0418226,84.5975466 15.0418226,70.44398 Z" id="Path" fill="#9C9C9C" opacity="0.6"></path>
            <path d="M119.707441,0 C110.554192,0 101.724846,1.3706064 93.3993482,3.87136193 C120.787116,13.3934695 140.449206,39.4590369 140.449206,70.1534065 C140.449206,108.903094 109.114625,140.306813 70.4502462,140.306813 C58.7297691,140.306813 47.7050829,137.409303 38,132.311609 C52.9714999,162.356744 83.9221968,183 119.707441,183 C170.128285,183 211,142.038105 211,91.5060114 C211,40.9739176 170.128285,0 119.707441,0 Z" id="Path" fill="#888888"></path>
        </g>
        <g id="forMohamed_2-Copy" fill-rule="nonzero">
            <path d="M15.0418226,70.44398 C15.0418226,41.2732394 38.1627727,17.51204 67.0819672,16.4205361 C74.9210017,10.9510223 83.6363754,6.6809632 93,3.86224443 C85.8092165,1.36737846 78.0902285,0 70.0351104,0 C31.3561379,0 0,31.3297592 0,69.9881872 C0,96.9279418 15.2459016,120.293321 37.574545,132 C33.7090487,124.263517 30.9119659,115.903317 29.3753711,107.111313 C20.4799277,97.4676965 15.0418226,84.5975466 15.0418226,70.44398 Z" id="Path" fill="#9C9C9C" opacity="0.6"></path>
            <path d="M119.707441,0 C110.554192,0 101.724846,1.3706064 93.3993482,3.87136193 C120.787116,13.3934695 140.449206,39.4590369 140.449206,70.1534065 C140.449206,108.903094 109.114625,140.306813 70.4502462,140.306813 C58.7297691,140.306813 47.7050829,137.409303 38,132.311609 C52.9714999,162.356744 83.9221968,183 119.707441,183 C170.128285,183 211,142.038105 211,91.5060114 C211,40.9739176 170.128285,0 119.707441,0 Z" id="Path" fill="#888888"></path>
        </g>
    </g>
</svg>