<?xml version="1.0" encoding="UTF-8"?>
<svg width="211px" height="183px" viewBox="0 0 211 183" version="1.1" xmlns="http://www.w3.org/2000/svg" xmlns:xlink="http://www.w3.org/1999/xlink">
    <title>design_lesson_CB_logo_03</title>
    <g id="design_lesson_CB_logo_03" stroke="none" stroke-width="1" fill="none" fill-rule="evenodd">
        <g id="forMohamed_2-Copy-3" fill-rule="nonzero">
            <path d="M15.0418226,70.44398 C15.0418226,41.2732394 38.1627727,17.51204 67.0819672,16.4205361 C74.9210017,10.9510223 83.6363754,6.6809632 93,3.86224443 C85.8092165,1.36737846 78.0902285,0 70.0351104,0 C31.3561379,0 0,31.3297592 0,69.9881872 C0,96.9279418 15.2459016,120.293321 37.574545,132 C33.7090487,124.263517 30.9119659,115.903317 29.3753711,107.111313 C20.4799277,97.4676965 15.0418226,84.5975466 15.0418226,70.44398 Z" id="Path" fill="#9C9C9C" opacity="0.6"></path>
            <path d="M119.707441,0 C110.554192,0 101.724846,1.3706064 93.3993482,3.87136193 C120.787116,13.3934695 140.449206,39.4590369 140.449206,70.1534065 C140.449206,108.903094 109.114625,140.306813 70.4502462,140.306813 C58.7297691,140.306813 47.7050829,137.409303 38,132.311609 C52.9714999,162.356744 83.9221968,183 119.707441,183 C170.128285,183 211,142.038105 211,91.5060114 C211,40.9739176 170.128285,0 119.707441,0 Z" id="Path" fill="#888888"></path>
        </g>
        <text id="Check-Balance-Copy" font-family="HelveticaNeue-Medium, Helvetica Neue" font-size="24" font-weight="400" letter-spacing="-0.685714" fill="#3D9DD5">
            <tspan x="41.5" y="66">Check </tspan>
            <tspan x="41.5" y="94">Balance</tspan>
        </text>
    </g>
</svg>