<?xml version="1.0" encoding="UTF-8"?>
<svg width="95px" height="113px" viewBox="0 0 95 113" version="1.1" xmlns="http://www.w3.org/2000/svg" xmlns:xlink="http://www.w3.org/1999/xlink">
    <title>Vector_logo</title>
    <g id="Vector_logo" stroke="none" stroke-width="1" fill="none" fill-rule="evenodd">
        <g id="Group-2-Copy" transform="translate(0.135223, 1.333059)">
            <path d="M1.44373322,36.1811619 L0,111.482889 L13.7601471,111.482889 L13.7601471,87.1669407 C14.2475739,83.0910028 15.8832016,80.1722711 18.6670303,78.4107456 C22.8427734,75.7684574 24.6215515,76.0445805 26.7897949,76.0445805 C28.9580383,76.0445805 33.3835373,81.8278904 33.3835373,87.1669407 C33.3835373,90.7263076 33.3835373,98.3819625 33.3835373,110.133905 L41.3668365,110.133905 C42.7502492,105.77035 43.4419556,100.63152 43.4419556,94.7174168 C43.4419556,85.846262 41.0374451,68.7280216 38.4892578,66.2813358 C35.9410706,63.83465 30.580246,61.5948582 26.7897949,61.5948582 C22.9993439,61.5948582 18.8251114,62.3951283 17.1638565,66.2813358 C16.0563533,68.8721409 14.9217834,70.1518472 13.7601471,70.1204548 L13.7601471,36.1811619 L1.44373322,36.1811619 Z" id="Path" fill="#24A6CB"></path>
            <path d="M46.5737,63.0367908 L46.5737,111.482889 L57.1709137,111.482889 C58.9553579,80.1199894 58.9553579,63.97129 57.1709137,63.0367908 C55.3864695,62.1022917 51.8540649,62.1022917 46.5737,63.0367908 Z" id="Path-2" fill="#24A6CB"></path>
            <path d="M73.5096283,48.482523 L75.9707642,70.5924931 L79.4928131,96.8032475 C80.8978322,98.8491357 82.4757538,99.8720798 84.2265778,99.8720798 C86.8528137,99.8720798 89.5899963,96.6312351 89.5899963,91.8990879 C89.5899963,88.7443231 91.1314952,74.931167 94.2144928,50.4596195 C96.0803274,49.1415552 94.5388285,48.482523 89.5899963,48.482523 C82.166748,48.482523 78.4319,48.482523 75.9707642,48.482523 C74.3300069,48.482523 73.5096283,48.482523 73.5096283,48.482523 Z" id="Path-3" fill="#24A6CB"></path>
            <path d="M88.1090698,104.251505 C85.3751831,102.927357 83.106074,102.927357 81.3017426,104.251505 C78.5952454,106.237726 78.8026886,107.105326 78.8026886,109.294107 C78.8026886,111.482889 82.6348656,111.482889 84.2452053,111.482889 C85.855545,111.482889 89.7952271,112.484034 89.7952271,109.294107 C89.7952271,107.16749 89.2331746,105.486622 88.1090698,104.251505 Z" id="Path-4" fill="#24A6CB"></path>
            <g id="Group" transform="translate(60.517776, 13.744951)">
                <polygon id="Path-6" fill="#252525" points="0 5.03604889 17.8404083 9.17102051 17.1261858 28.9796829"></polygon>
                <polygon id="Path-7" fill="#252525" points="1.5405426 15.9849682 8.75346375 15.9849682 7.92020416 23.4362106"></polygon>
                <path d="M28.7878723,1.31586456 C22.663386,-0.438621521 18.2020671,-0.438621521 15.4039154,1.31586456 C11.2066879,3.94759369 7.71017456,4.85456085 6.85042572,7.23592377 C5.99067688,9.61728668 5.15914917,13.1511612 5.57491302,14.6676559 C5.99067688,16.1841507 5.61722565,17.1085129 6.85042572,18.2039948 C8.08362579,19.2994766 8.97070312,20.7550926 10.1966095,20.7550926 C11.4225159,20.7550926 14.4012604,20.7550926 15.4039154,20.7550926 C16.4065704,20.7550926 23.7274288,17.0326157 23.7274288,15.8501358 C23.7274288,14.6676559 27.2889404,11.8242416 28.0384064,9.5300827 C28.5380503,8.00064341 28.7878723,5.2625707 28.7878723,1.31586456 Z" id="Path-5" fill="#DF9253"></path>
            </g>
            <path d="M66.6775284,7.01456261 C66.1143417,8.34599622 65.8327484,9.94768206 65.8327484,11.8196201 C65.8327484,13.6915582 66.1143417,15.4266987 66.6775284,17.0250416 L70.1838531,20.2725163 L71.5196152,23.1224976 L68.6761818,26.044672 L66.6775284,26.044672 L65.8327484,28.7299194 L67.3482971,32.4555407 L68.6761818,29.7528172 L68.6761818,27.8856754 L76.6655426,25.4114552 C75.8523916,22.9298871 75.445816,21.0377526 75.445816,19.7350516 C75.445816,17.7810001 73.5096283,14.8493176 73.5096283,14.8493176 C73.5096283,14.8493176 74.2260895,13.8365574 75.445816,13.8365574 C76.2589671,13.8365574 77.0360565,13.8365574 77.7770844,13.8365574 L79.5459213,13.8365574 C80.5588862,13.7257074 81.0653687,13.3618387 81.0653687,12.7449512 C81.0653687,12.1280638 79.59876,11.8196201 76.6655426,11.8196201 L72.7848969,11.8196201 L72.7848969,9.62520027 C73.7456919,8.94396909 74.632665,8.6033535 75.445816,8.6033535 C76.6655426,8.6033535 77.7270737,7.77175522 78.6364975,7.77175522 C79.24278,7.77175522 80.0524038,7.77175522 81.0653687,7.77175522 C81.1093903,7.19415919 80.8671544,6.56929016 80.3386612,5.89714813 C79.8101679,5.2250061 79.24278,4.54074923 78.6364975,3.84437752 L78.6364975,5.89714813 L76.6655426,7.01456261 L75.445816,7.01456261 L73.5096283,7.01456261 L72.7848969,7.01456261 L70.8386765,5.26875305 L70.8386765,3.84437752 L70.1838531,2.46646881 L68.6761818,0.643297195 L67.3482971,0 L65.8327484,0.643297195 L65.8327484,2.46646881 L66.6775284,3.84437752 L67.3482971,4.62112427 L66.6775284,7.01456261 Z" id="Path-8" stroke="#D9D5D5" fill="#FFFFFF"></path>
            <circle id="Oval" fill="#D8D8D8" cx="44.8647766" cy="36.6669407" r="5"></circle>
            <circle id="Oval-Copy" fill="#D8D8D8" cx="48.8647766" cy="41.6669407" r="6"></circle>
            <circle id="Oval-Copy-2" fill="#D8D8D8" cx="52.8647766" cy="43.6669407" r="6"></circle>
            <circle id="Oval-Copy-3" fill="#D8D8D8" cx="51.8647766" cy="38.6669407" r="6"></circle>
            <circle id="Oval-Copy-5" fill="#D8D8D8" cx="59.3647766" cy="36.1669407" r="5.5"></circle>
        </g>
    </g>
</svg>