<?xml version="1.0" encoding="UTF-8"?>
<svg width="138px" height="154px" viewBox="0 0 138 154" version="1.1" xmlns="http://www.w3.org/2000/svg" xmlns:xlink="http://www.w3.org/1999/xlink">
    <title>Vector_logo_02</title>
    <g id="Vector_logo_02" stroke="none" stroke-width="1" fill="none" fill-rule="evenodd">
        <g id="Group-4">
            <g id="Group-3" fill="#FFFFFF">
                <polygon id="Path-9" points="22.1993317 114.146806 7.72906797 154 51.0473892 131.513819"></polygon>
                <ellipse id="Oval" cx="69" cy="68.8514455" rx="69" ry="68.8514455"></ellipse>
            </g>
            <g id="Group-2" transform="translate(25.000000, 10.000000)">
                <path d="M1.3224232,33.059392 L0,101.863963 L12.6039475,101.863963 L12.6039475,79.6460343 C13.0504181,75.921775 14.5486119,73.2548763 17.0985288,71.6453381 C20.9234041,69.2310308 22.5527199,69.4833295 24.5387762,69.4833295 C26.5248324,69.4833295 30.5784778,74.767646 30.5784778,79.6460343 C30.5784778,82.8982932 30.5784778,89.8934056 30.5784778,100.631372 L37.8909785,100.631372 C39.1581496,96.6443106 39.7917351,91.9488676 39.7917351,86.545043 C39.7917351,78.4393059 37.5892642,62.7980554 35.255189,60.5624736 C32.9211137,58.3268919 28.0107337,56.280353 24.5387762,56.280353 C21.0668187,56.280353 17.243327,57.0115744 15.7216595,60.5624736 C14.7072144,62.9297398 13.6679771,64.099031 12.6039475,64.0703471 L12.6039475,33.059392 L1.3224232,33.059392 Z" id="Path" fill="#24A6CB"></path>
                <path d="M42.660334,57.5978733 L42.660334,101.863963 L52.3671144,101.863963 C54.0016202,73.2071055 54.0016202,58.4517423 52.3671144,57.5978733 C50.7326085,56.7440043 47.4970151,56.7440043 42.660334,57.5978733 Z" id="Path-2" fill="#24A6CB"></path>
                <path d="M67.3329647,44.2993715 L69.587303,64.5016572 L72.813411,88.4509048 C74.1003731,90.3202704 75.5457094,91.2549533 77.14942,91.2549533 C79.5549858,91.2549533 82.062176,88.2937339 82.062176,83.9698841 C82.062176,81.0873176 83.4741501,68.4659832 86.2980981,46.1058809 C88.0071555,44.9015413 86.5951815,44.2993715 82.062176,44.2993715 C75.2626679,44.2993715 71.8416414,44.2993715 69.587303,44.2993715 C68.0844108,44.2993715 67.3329647,44.2993715 67.3329647,44.2993715 Z" id="Path-3" fill="#24A6CB"></path>
                <path d="M80.7056847,95.2565144 C78.2015135,94.0466164 76.1230668,94.0466164 74.4703447,95.2565144 C71.9912616,97.0713612 72.1812743,97.8641028 72.1812743,99.8640329 C72.1812743,101.863963 75.6914518,101.863963 77.1664823,101.863963 C78.6415129,101.863963 82.2501622,102.778727 82.2501622,99.8640329 C82.2501622,97.9209035 81.7353364,96.385064 80.7056847,95.2565144 Z" id="Path-4" fill="#24A6CB"></path>
                <g id="Group" transform="translate(55.432756, 12.559014)">
                    <polygon id="Path-6" fill="#252525" points="0 4.60153034 16.3413639 8.37972984 15.687154 26.4792684"></polygon>
                    <polygon id="Path-7" fill="#252525" points="1.41109815 14.605759 8.01795192 14.605759 7.25470716 21.414096"></polygon>
                    <path d="M26.3689646,1.20232961 C20.7590897,-0.400776538 16.6726341,-0.400776538 14.1095978,1.20232961 C10.2650434,3.60698884 7.06232535,4.43570139 6.2748171,6.61159642 C5.48730886,8.78749144 4.72565046,12.0164575 5.10647966,13.4021066 C5.48730886,14.7877557 5.14523695,15.6323624 6.2748171,16.6333243 C7.40439725,17.6342862 8.21693771,18.9643092 9.33983701,18.9643092 C10.4627363,18.9643092 13.1911911,18.9643092 14.1095978,18.9643092 C15.0280045,18.9643092 21.7337261,15.5630137 21.7337261,14.4825601 C21.7337261,13.4021066 24.9959809,10.8040267 25.6824728,8.70781156 C26.140134,7.3103348 26.3689646,4.80850748 26.3689646,1.20232961 Z" id="Path-5" fill="#DF9253"></path>
                </g>
                <path d="M61.0749335,6.40933466 C60.5590688,7.62589 60.3011364,9.08937977 60.3011364,10.799804 C60.3011364,12.5102281 60.5590688,14.0956579 61.0749335,15.5560931 L64.2866386,18.5233704 L65.5101629,21.1274506 L62.9056496,23.7974951 L61.0749335,23.7974951 L60.3011364,26.2510549 L61.6893408,29.6552235 L62.9056496,27.1856954 L62.9056496,25.4796537 L70.2237025,23.2189132 C69.4788767,20.9514589 69.1064638,19.2225809 69.1064638,18.0322791 C69.1064638,16.2468263 67.3329647,13.5680941 67.3329647,13.5680941 C67.3329647,13.5680941 67.989225,12.6427166 69.1064638,12.6427166 C69.8512896,12.6427166 70.5630839,12.6427166 71.2418467,12.6427166 L72.8620568,12.6427166 C73.789907,12.5414309 74.2538322,12.2089573 74.2538322,11.645296 C74.2538322,11.0816346 72.9104556,10.799804 70.2237025,10.799804 L66.669129,10.799804 L66.669129,8.79472223 C67.549193,8.17226879 68.361638,7.86104207 69.1064638,7.86104207 C70.2237025,7.86104207 71.1960382,7.10119545 72.0290475,7.10119545 C72.584387,7.10119545 73.3259819,7.10119545 74.2538322,7.10119545 C74.2941549,6.57343536 74.072273,6.00248105 73.5881865,5.38833254 C73.1041,4.77418402 72.584387,4.14896595 72.0290475,3.51267833 L72.0290475,5.38833254 L70.2237025,6.40933466 L69.1064638,6.40933466 L67.3329647,6.40933466 L66.669129,6.40933466 L64.8864402,4.81415641 L64.8864402,3.51267833 L64.2866386,2.25365784 L62.9056496,0.58779246 L61.6893408,0 L60.3011364,0.58779246 L60.3011364,2.25365784 L61.0749335,3.51267833 L61.6893408,4.2224061 L61.0749335,6.40933466 Z" id="Path-8" stroke="#D9D5D5" fill="#FFFFFF"></path>
                <ellipse id="Oval" fill="#D8D8D8" cx="41.0950033" cy="33.503257" rx="4.57987384" ry="4.56859181"></ellipse>
                <ellipse id="Oval-Copy" fill="#D8D8D8" cx="44.7589024" cy="38.0718488" rx="5.4958486" ry="5.48231018"></ellipse>
                <ellipse id="Oval-Copy-2" fill="#D8D8D8" cx="48.4228015" cy="39.8992855" rx="5.4958486" ry="5.48231018"></ellipse>
                <ellipse id="Oval-Copy-3" fill="#D8D8D8" cx="47.5068267" cy="35.3306937" rx="5.4958486" ry="5.48231018"></ellipse>
                <ellipse id="Oval-Copy-5" fill="#D8D8D8" cx="54.3766374" cy="33.0463978" rx="5.03786122" ry="5.02545099"></ellipse>
            </g>
        </g>
    </g>
</svg>